<?xml version="1.0" standalone="no"?>
<!DOCTYPE svg PUBLIC "-//W3C//DTD SVG 1.1//EN" "http://www.w3.org/Graphics/SVG/1.1/DTD/svg11.dtd">
<svg t="1660039720716" class="icon" viewBox="0 0 1024 1024" version="1.1" xmlns="http://www.w3.org/2000/svg" p-id="10648" xmlns:xlink="http://www.w3.org/1999/xlink" width="32" height="32" fill="currentColor">
	<path d="M916.138667 198.4 919.296 195.242667 828.757333 104.704 825.6 107.861333C738.901333 40.533333 630.272 0 512 0 229.205333 0 0 229.290667 0 512 0 630.272 40.448 738.901333 107.861333 825.6L104.704 828.757333 195.157333 919.296 198.4 916.053333C285.013333 983.466667 393.642667 1024 512 1024 794.709333 1024 1024 794.709333 1024 512 1024 393.728 983.466667 285.098667 916.138667 198.4ZM73.130667 512C73.130667 269.994667 269.994667 73.130667 512 73.130667 606.634667 73.130667 721.578667 112.725333 793.344 163.84L177.493333 779.52C126.378667 707.84 73.130667 606.634667 73.130667 512ZM512 950.869333C417.365333 950.869333 307.029333 897.536 235.178667 846.421333L855.637333 226.133333C906.666667 297.898667 950.869333 417.365333 950.869333 512 950.869333 754.005333 754.005333 950.869333 512 950.869333Z" p-id="10649">
	</path>
</svg>
