<?xml version="1.0" standalone="no"?>
<!DOCTYPE svg PUBLIC "-//W3C//DTD SVG 1.1//EN" "http://www.w3.org/Graphics/SVG/1.1/DTD/svg11.dtd">
<svg t="1660023428746" class="icon" viewBox="0 0 1024 1024" version="1.1" xmlns="http://www.w3.org/2000/svg" p-id="5600" xmlns:xlink="http://www.w3.org/1999/xlink" width="32" height="32" fill="currentColor">
	<path d="M865.05 308.47c12.82 0 23.19-10.37 23.19-23.18V162.77c0-12.81-10.37-23.18-23.19-23.18H742.51c-12.79 0-23.19 10.37-23.19 23.18v38.08h-75.26c-2.35-0.36-4.73-0.36-7.07 0H315.21v-38.08c0-12.82-10.39-23.19-23.19-23.19H169.49c-12.82 0-23.19 10.37-23.19 23.19v122.51c0 12.82 10.37 23.19 23.19 23.19h38.09v404.14h-38.09c-12.82 0-23.19 10.37-23.19 23.18V858.3c0 12.82 10.37 23.19 23.19 23.19h122.54c12.79 0 23.19-10.37 23.19-23.19v-38.08h404.11v38.08c0 12.82 10.39 23.19 23.19 23.19h122.54c12.82 0 23.19-10.37 23.19-23.19V735.8c0-12.82-10.37-23.19-23.19-23.19h-38.09V387.4c0.04-0.78 0.04-1.57 0-2.36v-76.58h38.08z m-99.36-122.51h76.17v76.14h-76.17v-76.14zM253.94 471.44c1.39-0.9 2.68-1.94 3.85-3.1l221.12-221.11h105.37L253.94 577.55V471.44z m-61.27-285.48h76.17v37.2c-0.01 0.29-0.02 0.58-0.02 0.88 0 0.3 0.01 0.59 0.02 0.88v37.18h-76.17v-76.14z m99.36 122.51c12.79 0 23.19-10.37 23.19-23.19v-38.06h98.13l-159.4 159.39v-98.15h38.08z m-38.09 334.65l395.91-395.9h69.47v28.41l-437 436.98h-28.39l0.01-69.49z m-61.27 192v-76.14h76.17v37.18c-0.01 0.29-0.02 0.58-0.02 0.88 0 0.3 0.01 0.59 0.02 0.88v37.2h-76.17zM780.59 546.3l-222.01 222a23.09 23.09 0 0 0-4.11 5.56H448.95l331.64-331.63V546.3z m61.27 288.82h-76.17v-76.14h76.17v76.14z m-99.35-122.51c-12.79 0-23.19 10.37-23.19 23.18v38.06H618.59l162-161.99v100.75h-38.08z m38.08-335.95l-397.21 397.2h-68.17V745.3l436.85-436.83h28.54l-0.01 68.19z m0 0" p-id="5601">
	</path>
</svg>
