<?xml version="1.0" standalone="no"?>
<!DOCTYPE svg PUBLIC "-//W3C//DTD SVG 1.1//EN" "http://www.w3.org/Graphics/SVG/1.1/DTD/svg11.dtd">
<svg t="1660017046525" class="icon" viewBox="0 0 1024 1024" version="1.1" xmlns="http://www.w3.org/2000/svg" p-id="3568" xmlns:xlink="http://www.w3.org/1999/xlink" width="32" height="32" fill="currentColor">
	<path d="M431.872 838.496l-90.88 90.848L160 748.32 748.32 160l181.024 181.024-90.88 90.848 0.16 0.128-22.624 22.624-0.128-0.128-105.376 105.376 0.128 0.128-22.624 22.624-0.128-0.128-105.376 105.376 0.128 0.128-22.624 22.624-0.128-0.128-105.376 105.376 0.128 0.128-22.624 22.624-0.128-0.128z m-22.624-22.624l-67.744-67.744 22.624-22.624 67.744 67.744 105.376-105.376-67.744-67.744 22.624-22.624 67.744 67.744 105.376-105.376-67.744-67.744 22.624-22.624 67.744 67.744 105.376-105.376-67.744-67.744 22.624-22.624 67.744 67.744 68.192-68.224-135.744-135.776-543.04 543.04 135.744 135.776 68.224-68.192zM112 646.624l-22.624-22.624L639.328 74.048l22.624 22.624L112 646.624z" p-id="3569">
	</path>
</svg>
